<svg width="89" height="89" viewBox="0 0 89 89" fill="none" xmlns="http://www.w3.org/2000/svg">
<g id="Figma - Original" clip-path="url(#clip0_2_41)">
<path id="path0 fill 1" d="M29.8336 88.5001C37.9296 88.5001 44.5005 81.9293 44.5005 73.8333V59.1665H29.8336C21.7375 59.1665 15.1667 65.7373 15.1667 73.8333C15.1667 81.9293 21.7375 88.5001 29.8336 88.5001Z" fill="#0ACF83"/>
<path id="path1 fill 3" d="M15.1667 44.5C15.1667 36.404 21.7375 29.8333 29.8336 29.8333H44.5005V59.1665H29.8336C21.7375 59.1668 15.1667 52.596 15.1667 44.5Z" fill="#A259FF"/>
<path id="path1 fill 2" d="M15.1667 15.1668C15.1667 7.07078 21.7375 0.5 29.8336 0.5H44.5005V29.8332H29.8336C21.7375 29.8332 15.1667 23.2628 15.1667 15.1668Z" fill="#F24E1E"/>
<path id="path2 fill 1" d="M44.4996 0.5H59.1665C67.2625 0.5 73.8333 7.07078 73.8333 15.1668C73.8333 23.2628 67.2625 29.8332 59.1665 29.8332H44.4996V0.5Z" fill="#FF7262"/>
<path id="path3 fill 1" d="M73.8333 44.5C73.8333 52.596 67.2625 59.1668 59.1665 59.1668C51.0704 59.1668 44.4996 52.596 44.4996 44.5C44.4996 36.404 51.0704 29.8333 59.1665 29.8333C67.2625 29.8333 73.8333 36.404 73.8333 44.5Z" fill="#1ABCFE"/>
</g>
<defs>
<clipPath id="clip0_2_41">
<rect width="88" height="88" fill="white" transform="translate(0.5 0.5)"/>
</clipPath>
</defs>
</svg>
