<svg width="89" height="89" viewBox="0 0 89 89" fill="none" xmlns="http://www.w3.org/2000/svg">
<g id="Discord - Original" clip-path="url(#clip0_2_55)">
<path id="Vector" d="M74.9957 15.7372C69.3869 13.1636 63.3723 11.2675 57.0836 10.1816C56.9691 10.1606 56.8547 10.213 56.7957 10.3177C56.0222 11.6935 55.1654 13.4883 54.5653 14.8991C47.8015 13.8865 41.0723 13.8865 34.4472 14.8991C33.847 13.457 32.9591 11.6935 32.1821 10.3177C32.1231 10.2165 32.0087 10.1641 31.8942 10.1816C25.609 11.2641 19.5944 13.1601 13.9821 15.7372C13.9335 15.7581 13.8919 15.7931 13.8642 15.8384C2.45577 32.8824 -0.669484 49.5075 0.86366 65.9264C0.870598 66.0068 0.915689 66.0836 0.978126 66.1324C8.5051 71.6601 15.7963 75.0158 22.952 77.2401C23.0665 77.2751 23.1879 77.2332 23.2608 77.1389C24.9535 74.8273 26.4624 72.39 27.7561 69.8268C27.8324 69.6767 27.7595 69.4986 27.6035 69.4392C25.2102 68.5314 22.9312 67.4244 20.739 66.1674C20.5656 66.0661 20.5517 65.8181 20.7112 65.6994C21.1726 65.3537 21.634 64.994 22.0745 64.6309C22.1542 64.5645 22.2652 64.5505 22.359 64.5924C36.7607 71.1678 52.3523 71.1678 66.5842 64.5924C66.6779 64.5471 66.7889 64.5611 66.8721 64.6274C67.3127 64.9905 67.774 65.3537 68.2388 65.6994C68.3983 65.8181 68.3879 66.0661 68.2145 66.1674C66.0223 67.4488 63.7434 68.5314 61.3465 69.4358C61.1905 69.4951 61.1211 69.6767 61.1974 69.8268C62.5189 72.3864 64.0278 74.8237 65.6893 77.1354C65.7587 77.2332 65.8835 77.2751 65.998 77.2401C73.1885 75.0158 80.4796 71.6601 88.0066 66.1324C88.0725 66.0836 88.1142 66.0102 88.1211 65.9299C89.956 46.9478 85.0478 30.4591 75.1101 15.8419C75.0858 15.7931 75.0443 15.7581 74.9957 15.7372ZM29.9067 55.929C25.5708 55.929 21.9982 51.9483 21.9982 47.0596C21.9982 42.1709 25.5015 38.1902 29.9067 38.1902C34.3465 38.1902 37.8846 42.2058 37.8152 47.0596C37.8152 51.9483 34.3118 55.929 29.9067 55.929ZM59.1474 55.929C54.8116 55.929 51.2389 51.9483 51.2389 47.0596C51.2389 42.1709 54.7422 38.1902 59.1474 38.1902C63.5873 38.1902 67.1253 42.2058 67.056 47.0596C67.056 51.9483 63.5873 55.929 59.1474 55.929Z" fill="#5865F2"/>
</g>
<defs>
<clipPath id="clip0_2_55">
<rect width="88" height="88" fill="white" transform="translate(0.5 0.5)"/>
</clipPath>
</defs>
</svg>
