<svg width="89" height="89" viewBox="0 0 89 89" fill="none" xmlns="http://www.w3.org/2000/svg">
<g id="Dribbble - Original">
<path id="Vector" d="M44.5 87.125C68.0411 87.125 87.125 68.0411 87.125 44.5C87.125 20.9589 68.0411 1.875 44.5 1.875C20.9589 1.875 1.875 20.9589 1.875 44.5C1.875 68.0411 20.9589 87.125 44.5 87.125Z" fill="#EA4C89"/>
<path id="Vector_2" fill-rule="evenodd" clip-rule="evenodd" d="M44.5 0.5C20.2093 0.5 0.5 20.2093 0.5 44.5C0.5 68.7907 20.2093 88.5 44.5 88.5C68.7429 88.5 88.5 68.7907 88.5 44.5C88.5 20.2093 68.7429 0.5 44.5 0.5ZM73.5628 20.782C78.8123 27.1768 81.9622 35.3373 82.0576 44.1659C80.8168 43.9274 68.4088 41.398 55.9056 42.9729C55.6193 42.3525 55.3807 41.6843 55.0944 41.0163C54.3307 39.2029 53.4719 37.3418 52.6128 35.576C66.4521 29.9448 72.7516 21.8319 73.5628 20.782ZM44.5 6.99025C54.0444 6.99025 62.7776 10.5694 69.4111 16.4393C68.7429 17.3937 63.0639 24.9816 49.7016 29.9924C43.5455 18.6822 36.7214 9.42408 35.6714 7.9924C38.4869 7.32429 41.4459 6.99025 44.5 6.99025ZM28.5131 10.5217C29.5152 11.8579 36.1964 21.1638 42.448 32.2353C24.8861 36.9122 9.37637 36.8168 7.70607 36.8168C10.1399 25.1725 18.0141 15.4848 28.5131 10.5217ZM6.8948 44.5479C6.8948 44.1659 6.8948 43.7842 6.8948 43.4025C8.51735 43.4501 26.7473 43.6888 45.5021 38.0576C46.5999 40.1572 47.602 42.3047 48.5565 44.4522C48.0791 44.5954 47.5541 44.7387 47.077 44.8817C27.7017 51.1333 17.3937 68.2179 16.5347 69.6496C10.5694 63.0163 6.8948 54.1877 6.8948 44.5479ZM44.5 82.1051C35.8144 82.1051 27.7972 79.1464 21.4501 74.1832C22.1182 72.7994 29.7537 58.101 50.9424 50.704C51.0378 50.6562 51.0857 50.6562 51.1811 50.6086C56.4782 64.3047 58.6259 75.8057 59.1985 79.0986C54.6648 81.0552 49.7016 82.1051 44.5 82.1051ZM65.4501 75.6627C65.0684 73.372 63.0639 62.3959 58.1485 48.8904C69.9361 47.0292 80.2439 50.0836 81.5326 50.5131C79.9101 60.9642 73.8969 69.9837 65.4501 75.6627Z" fill="#C32361"/>
</g>
</svg>
