<svg width="89" height="89" viewBox="0 0 89 89" fill="none" xmlns="http://www.w3.org/2000/svg">
<g id="TikTok - Original">
<path id="Vector" d="M63.4806 32.2662C69.1395 36.3258 76.072 38.7145 83.5594 38.7145V24.2551C82.1425 24.2554 80.7291 24.1071 79.3428 23.8123V35.1939C71.8559 35.1939 64.9244 32.8053 59.2639 28.746V58.2534C59.2639 73.0145 47.3402 84.9798 32.6325 84.9798C27.1446 84.9798 22.0439 83.3148 17.8068 80.4593C22.6428 85.4217 29.387 88.5001 36.8482 88.5001C51.5569 88.5001 63.4812 76.5347 63.4812 61.773V32.2662H63.4806ZM68.6824 17.6785C65.7903 14.5077 63.8915 10.41 63.4806 5.8798V4.02002H59.4847C60.4905 9.77786 63.9212 14.697 68.6824 17.6785ZM27.1095 69.1321C25.4936 67.0059 24.6205 64.405 24.6244 61.7307C24.6244 54.9796 30.0782 49.5056 36.8067 49.5056C38.0607 49.5053 39.3072 49.698 40.5022 50.0785V35.296C39.1056 35.1039 37.6962 35.0224 36.2873 35.0523V46.5583C35.0914 46.1777 33.8443 45.9845 32.59 45.9857C25.8615 45.9857 20.408 51.459 20.408 58.2111C20.408 62.9853 23.134 67.1186 27.1095 69.1321Z" fill="#FF004F"/>
<path id="Vector_2" d="M59.2637 28.7457C64.9242 32.805 71.8557 35.1936 79.3426 35.1936V23.812C75.1635 22.9187 71.4638 20.727 68.6822 17.6785C63.9207 14.6967 60.4903 9.77756 59.4845 4.02002H48.9883V61.7724C48.9645 68.5051 43.52 73.9567 36.8059 73.9567C32.8494 73.9567 29.3345 72.064 27.1084 69.1321C23.1332 67.1186 20.4072 62.985 20.4072 58.2114C20.4072 51.4599 25.8607 45.986 32.5892 45.986C33.8784 45.986 35.1209 46.1874 36.2865 46.5586V35.0526C21.8371 35.3522 10.2163 47.2007 10.2163 61.7727C10.2163 69.0469 13.1102 75.6413 17.8069 80.4596C22.0441 83.3148 27.1447 84.9801 32.6326 84.9801C47.3406 84.9801 59.264 73.0142 59.264 58.2534V28.7457H59.2637Z" fill="black"/>
<path id="Vector_3" d="M79.3426 23.8119V20.7344C75.5741 20.7402 71.8796 19.681 68.6822 17.6781C71.5126 20.7879 75.2396 22.9322 79.3426 23.8119ZM59.4846 4.01994C59.3886 3.46968 59.3149 2.91579 59.2638 2.35978V0.5H44.7714V58.253C44.7482 64.9848 39.304 70.4364 32.5893 70.4364C30.618 70.4364 28.7567 69.9668 27.1084 69.1323C29.3345 72.0639 32.8495 73.9563 36.806 73.9563C43.5195 73.9563 48.9649 68.5053 48.9884 61.7726V4.01994H59.4846ZM36.2872 35.0525V31.7763C35.0762 31.6102 33.8553 31.5268 32.6329 31.5274C17.9237 31.5271 6 43.4931 6 58.253C6 67.5066 10.6862 75.6618 17.8073 80.459C13.1105 75.641 10.2167 69.0462 10.2167 61.7723C10.2167 47.2006 21.8372 35.3521 36.2872 35.0525Z" fill="#00F2EA"/>
</g>
</svg>
