<svg width="89" height="89" viewBox="0 0 89 89" fill="none" xmlns="http://www.w3.org/2000/svg">
<g id="Spotify - Original">
<path id="Vector" d="M44.5 0.5C20.2 0.5 0.5 20.198 0.5 44.5C0.5 68.802 20.2 88.5 44.5 88.5C68.8 88.5 88.5 68.802 88.5 44.5C88.5 20.198 68.8 0.5 44.5 0.5ZM65.9666 63.9287C65.26 65.18 63.96 65.884 62.62 65.884C61.9934 65.884 61.3467 65.7273 60.7533 65.3973C55.26 62.3173 49.2734 60.4307 42.9467 59.79C36.6067 59.1547 30.3467 59.798 24.3333 61.718C22.3267 62.3587 20.1667 61.25 19.5267 59.24C18.88 57.2267 19.9933 55.074 22.0067 54.43C29.02 52.1893 36.3333 51.4273 43.72 52.178C51.0933 52.9287 58.08 55.1287 64.4933 58.7233C66.34 59.7513 67 62.0833 65.9666 63.9287ZM71.2333 50.564C70.5533 51.8727 69.22 52.6233 67.84 52.6233C67.24 52.6233 66.64 52.486 66.0733 52.1893C59.32 48.672 52.0266 46.494 44.38 45.718C36.6733 44.9293 29.04 45.6167 21.68 47.7393C19.6467 48.3167 17.5267 47.154 16.9467 45.1213C16.36 43.092 17.5333 40.972 19.56 40.386C27.8666 37.9907 36.48 37.2233 45.1533 38.1033C53.7667 38.9807 61.9934 41.434 69.6134 45.4047C71.48 46.3813 72.2133 48.6907 71.2333 50.564ZM73.14 39.4453C72.5666 39.4453 71.9867 39.316 71.4333 39.044C63.42 35.048 54.8 32.5593 45.8066 31.6467C36.8 30.7253 27.84 31.4373 19.1667 33.7533C17.1267 34.2947 15.0333 33.0847 14.4867 31.0413C13.94 29.0007 15.1534 26.9027 17.2 26.358C26.7667 23.8033 36.66 23.0253 46.5867 24.0347C56.5 25.038 66.0067 27.7853 74.8467 32.194C76.74 33.1367 77.5067 35.436 76.5667 37.3253C75.9 38.67 74.5466 39.4453 73.14 39.4453Z" fill="#1ED760"/>
</g>
</svg>
