<svg width="89" height="89" viewBox="0 0 89 89" fill="none" xmlns="http://www.w3.org/2000/svg">
<g id="Reddit - Original" clip-path="url(#clip0_2_52)">
<path id="Vector" d="M44.5 88.5C68.8005 88.5 88.5 68.8005 88.5 44.5C88.5 20.1995 68.8005 0.5 44.5 0.5C20.1995 0.5 0.5 20.1995 0.5 44.5C0.5 68.8005 20.1995 88.5 44.5 88.5Z" fill="#FF4500"/>
<path id="Vector_2" d="M73.8333 44.4999C73.8333 40.949 70.9514 38.0671 67.4006 38.0671C65.6508 38.0671 64.107 38.7361 62.9748 39.8683C58.6006 36.7291 52.528 34.6707 45.838 34.4133L48.7713 20.673L58.2918 22.68C58.3947 25.0987 60.4017 27.0543 62.8719 27.0543C65.3935 27.0543 67.452 24.9958 67.452 22.4742C67.452 19.9525 65.3935 17.894 62.8719 17.894C61.0707 17.894 59.5269 18.9233 58.8064 20.4671L48.1538 18.2028C47.845 18.1514 47.5362 18.2028 47.2789 18.3572C47.0216 18.5116 46.8672 18.7689 46.7643 19.0777L43.5222 34.4133C36.6777 34.6192 30.5538 36.6262 26.128 39.8683C24.9959 38.7876 23.4006 38.0671 21.7023 38.0671C18.1514 38.0671 15.2696 40.949 15.2696 44.4999C15.2696 47.1245 16.8134 49.3373 19.0777 50.3666C18.9748 50.9841 18.9234 51.6531 18.9234 52.3221C18.9234 62.2028 30.3994 70.1794 44.6029 70.1794C58.8064 70.1794 70.2824 62.2028 70.2824 52.3221C70.2824 51.6531 70.231 51.0356 70.128 50.418C72.238 49.3888 73.8333 47.1245 73.8333 44.4999ZM29.8333 49.08C29.8333 46.5584 31.8918 44.4999 34.4134 44.4999C36.9351 44.4999 38.9935 46.5584 38.9935 49.08C38.9935 51.6017 36.9351 53.6601 34.4134 53.6601C31.8918 53.6601 29.8333 51.6017 29.8333 49.08ZM55.4099 61.1736C52.2707 64.3128 46.3011 64.5186 44.5514 64.5186C42.8017 64.5186 36.7807 64.2613 33.693 61.1736C33.2298 60.7104 33.2298 59.9385 33.693 59.4753C34.1561 59.0122 34.928 59.0122 35.3912 59.4753C37.3468 61.4309 41.5666 62.1514 44.6029 62.1514C47.6392 62.1514 51.8076 61.4309 53.8146 59.4753C54.2777 59.0122 55.0497 59.0122 55.5128 59.4753C55.8731 59.99 55.8731 60.7104 55.4099 61.1736ZM54.5865 53.6601C52.0649 53.6601 50.0064 51.6017 50.0064 49.08C50.0064 46.5584 52.0649 44.4999 54.5865 44.4999C57.1082 44.4999 59.1666 46.5584 59.1666 49.08C59.1666 51.6017 57.1082 53.6601 54.5865 53.6601Z" fill="white"/>
</g>
<defs>
<clipPath id="clip0_2_52">
<rect width="88" height="88" fill="white" transform="translate(0.5 0.5)"/>
</clipPath>
</defs>
</svg>
