<svg width="52" height="31" viewBox="0 0 52 31" fill="none" xmlns="http://www.w3.org/2000/svg">
<path id="Arrow 1" d="M3.9662 22.1467L4.37631 21.2347L4.37631 21.2347L3.9662 22.1467ZM0.645084 19.878C0.128755 20.074 -0.130918 20.6515 0.0650945 21.1678L3.25929 29.5819C3.4553 30.0983 4.03277 30.3579 4.5491 30.1619C5.06543 29.9659 5.3251 29.3885 5.12909 28.8721L2.2898 21.3929L9.76901 18.5536C10.2853 18.3576 10.545 17.7802 10.349 17.2638C10.153 16.7475 9.57552 16.4878 9.05919 16.6838L0.645084 19.878ZM4.37631 21.2347L1.41011 19.9009L0.589883 21.725L3.55609 23.0588L4.37631 21.2347ZM49.6451 0.702521C43.8149 19.7801 22.5701 29.4159 4.37631 21.2347L3.55609 23.0588C22.8482 31.7339 45.3756 21.5163 51.5578 1.28705L49.6451 0.702521Z" fill="#E6E6E6"/>
</svg>
