<svg width="52" height="30" viewBox="0 0 52 30" fill="none" xmlns="http://www.w3.org/2000/svg">
<path id="Arrow 1" d="M3.9662 21.7441L4.37631 20.8321L4.37631 20.8321L3.9662 21.7441ZM0.645084 19.4754C0.128755 19.6714 -0.130918 20.2489 0.0650945 20.7652L3.25929 29.1793C3.4553 29.6956 4.03277 29.9553 4.5491 29.7593C5.06543 29.5633 5.3251 28.9858 5.12909 28.4695L2.2898 20.9903L9.76901 18.151C10.2853 17.955 10.545 17.3775 10.349 16.8612C10.153 16.3449 9.57552 16.0852 9.05919 16.2812L0.645084 19.4754ZM4.37631 20.8321L1.41011 19.4983L0.589883 21.3223L3.55609 22.6562L4.37631 20.8321ZM49.6451 0.299895C43.8149 19.3774 22.5701 29.0133 4.37631 20.8321L3.55609 22.6561C22.8482 31.3313 45.3756 21.1137 51.5578 0.884421L49.6451 0.299895Z" fill="#181818"/>
</svg>
