<svg width="49" height="49" viewBox="0 0 49 49" fill="none" xmlns="http://www.w3.org/2000/svg">
<g id="Dribbble - Original">
<path id="Vector" d="M24.8389 47.8638C37.6795 47.8638 48.0889 37.4544 48.0889 24.6138C48.0889 11.7731 37.6795 1.36377 24.8389 1.36377C11.9982 1.36377 1.58887 11.7731 1.58887 24.6138C1.58887 37.4544 11.9982 47.8638 24.8389 47.8638Z" fill="#EA4C89"/>
<path id="Vector_2" fill-rule="evenodd" clip-rule="evenodd" d="M24.8389 0.61377C11.5894 0.61377 0.838867 11.3643 0.838867 24.6138C0.838867 37.8633 11.5894 48.6138 24.8389 48.6138C38.0623 48.6138 48.8389 37.8633 48.8389 24.6138C48.8389 11.3643 38.0623 0.61377 24.8389 0.61377ZM40.6913 11.6767C43.5547 15.1647 45.2728 19.6159 45.3248 24.4315C44.648 24.3015 37.88 22.9218 31.0601 23.7808C30.904 23.4424 30.7738 23.0779 30.6176 22.7136C30.2011 21.7245 29.7326 20.7093 29.264 19.7461C36.8128 16.6746 40.2488 12.2493 40.6913 11.6767ZM24.8389 4.1539C30.0449 4.1539 34.8085 6.10618 38.4268 9.30792C38.0623 9.82852 34.9646 13.9674 27.6761 16.7005C24.3182 10.5313 20.596 5.48145 20.0233 4.70053C21.559 4.33611 23.173 4.1539 24.8389 4.1539ZM16.1188 6.08014C16.6654 6.80899 20.3096 11.8849 23.7196 17.9239C14.1404 20.475 5.68052 20.4229 4.76945 20.4229C6.097 14.0715 10.392 8.7873 16.1188 6.08014ZM4.32694 24.6399C4.32694 24.4315 4.32694 24.2233 4.32694 24.0151C5.21197 24.0411 15.1556 24.1713 25.3855 21.0997C25.9843 22.245 26.5309 23.4163 27.0515 24.5877C26.7911 24.6658 26.5048 24.744 26.2445 24.822C15.6762 28.2319 10.0536 37.5508 9.58507 38.3317C6.33127 34.7136 4.32694 29.898 4.32694 24.6399ZM24.8389 45.1257C20.1013 45.1257 15.7282 43.5118 12.2662 40.8046C12.6306 40.0498 16.7954 32.0325 28.3529 27.9978C28.405 27.9717 28.4311 27.9717 28.4831 27.9457C31.3724 35.4163 32.5439 41.6896 32.8562 43.4857C30.3833 44.553 27.6761 45.1257 24.8389 45.1257ZM36.2662 41.6116C36.058 40.3621 34.9646 34.3752 32.2835 27.0085C38.7131 25.9933 44.3356 27.6594 45.0385 27.8937C44.1535 33.5943 40.8736 38.514 36.2662 41.6116Z" fill="#C32361"/>
</g>
</svg>
