<svg width="49" height="49" viewBox="0 0 49 49" fill="none" xmlns="http://www.w3.org/2000/svg">
<g id="Facebook - Original" clip-path="url(#clip0_1_67)">
<path id="Vector" d="M48.761 24.0761C48.761 10.8212 38.0158 0.0760803 24.761 0.0760803C11.5061 0.0760803 0.760986 10.8212 0.760986 24.0761C0.760986 36.055 9.53739 45.9841 21.011 47.7845V31.0136H14.9172V24.0761H21.011V18.7886C21.011 12.7736 24.5941 9.45108 30.0761 9.45108C32.7011 9.45108 35.4485 9.91983 35.4485 9.91983V15.8261H32.4222C29.441 15.8261 28.511 17.6762 28.511 19.5761V24.0761H35.1672L34.1032 31.0136H28.511V47.7845C39.9846 45.9841 48.761 36.055 48.761 24.0761Z" fill="#1877F2"/>
<path id="Vector_2" d="M34.1032 31.0136L35.1672 24.0761H28.511V19.5761C28.511 17.6781 29.441 15.8261 32.4222 15.8261H35.4485V9.91983C35.4485 9.91983 32.7021 9.45108 30.0761 9.45108C24.5941 9.45108 21.011 12.7736 21.011 18.7886V24.0761H14.9172V31.0136H21.011V47.7845C23.4959 48.1733 26.0261 48.1733 28.511 47.7845V31.0136H34.1032Z" fill="white"/>
</g>
<defs>
<clipPath id="clip0_1_67">
<rect width="48" height="48" fill="white" transform="translate(0.760986 0.0760803)"/>
</clipPath>
</defs>
</svg>
