<svg width="49" height="49" viewBox="0 0 49 49" fill="none" xmlns="http://www.w3.org/2000/svg">
<g id="Pinterest - Original" clip-path="url(#clip0_1_57)">
<path id="Vector" d="M24.9898 48.0448C38.2447 48.0448 48.9898 37.2996 48.9898 24.0448C48.9898 10.7899 38.2447 0.0447693 24.9898 0.0447693C11.735 0.0447693 0.989838 10.7899 0.989838 24.0448C0.989838 37.2996 11.735 48.0448 24.9898 48.0448Z" fill="white"/>
<path id="Vector_2" d="M24.9898 0.0447693C11.7355 0.0447693 0.989838 10.7904 0.989838 24.0448C0.989838 34.2176 7.31082 42.909 16.2392 46.4053C16.0219 44.509 15.8442 41.5855 16.3182 39.5114C16.7528 37.6349 19.1232 27.5806 19.1232 27.5806C19.1232 27.5806 18.4121 26.1386 18.4121 24.025C18.4121 20.6867 20.3479 18.1979 22.7577 18.1979C24.8121 18.1979 25.7997 19.7386 25.7997 21.5756C25.7997 23.63 24.496 26.7114 23.8047 29.5756C23.2318 31.9658 25.0096 33.9213 27.3602 33.9213C31.6269 33.9213 34.9059 29.4176 34.9059 22.9386C34.9059 17.1904 30.7775 13.1806 24.8713 13.1806C18.0368 13.1806 14.0269 18.2966 14.0269 23.5904C14.0269 25.6448 14.817 27.8571 15.8047 29.0621C16.0022 29.2991 16.0219 29.5164 15.9627 29.7534C15.7849 30.504 15.3701 32.1435 15.2911 32.4793C15.1923 32.9139 14.9355 33.0127 14.4812 32.7954C11.4787 31.3929 9.60218 27.0275 9.60218 23.4917C9.60218 15.9263 15.0935 8.97316 25.4639 8.97316C33.78 8.97316 40.259 14.8991 40.259 22.8398C40.259 31.1164 35.0442 37.7732 27.8145 37.7732C25.3849 37.7732 23.0935 36.509 22.3232 35.0077C22.3232 35.0077 21.1182 39.5904 20.8219 40.7164C20.2886 42.8102 18.8269 45.4176 17.8392 47.0176C20.0911 47.709 22.4614 48.0843 24.9503 48.0843C38.2047 48.0843 48.9503 37.3386 48.9503 24.0843C48.9898 10.7904 38.2442 0.0447693 24.9898 0.0447693Z" fill="#E60019"/>
</g>
<defs>
<clipPath id="clip0_1_57">
<rect width="48" height="48" fill="white" transform="translate(0.989838 0.0447693)"/>
</clipPath>
</defs>
</svg>
