<svg width="52" height="53" viewBox="0 0 52 53" fill="none" xmlns="http://www.w3.org/2000/svg">
<g id="Twitter - Original" clip-path="url(#clip0_1_35)">
<path id="Vector" d="M18.3272 46.6126C36.3979 45.3709 45.253 29.7203 44.3609 16.7372C44.3317 16.3119 44.3026 15.8886 44.2449 15.4692C46.0722 13.9462 47.6137 12.1101 48.7972 10.0468C47.0588 10.9649 45.1924 11.6167 43.2604 11.9803C45.2272 10.6116 46.6295 8.5749 47.2064 6.24928C45.3565 7.52631 43.302 8.47783 41.1315 9.06274C39.542 7.58939 37.5112 6.681 35.3533 6.47813C33.1955 6.27526 31.0309 6.78923 29.1946 7.9405C27.3583 9.09176 25.9526 10.8161 25.1951 12.8468C24.4376 14.8775 24.3704 17.1012 25.004 19.1738C21.0844 19.2463 17.1934 18.4937 13.5835 16.965C9.97363 15.4362 6.72555 13.1655 4.0501 10.3001C2.94234 12.5493 2.73347 15.1362 3.46602 17.534C4.19857 19.9318 5.81747 21.9603 7.99308 23.2064C6.42633 23.268 4.86778 22.9513 3.44934 22.2831L3.45789 22.4076C3.61438 24.6759 4.55066 26.8203 6.10793 28.4769C7.6652 30.1336 9.74759 31.2006 12.0019 31.497C10.5826 31.991 9.0689 32.1529 7.57721 31.9704C8.33941 33.8793 9.67905 35.5023 11.4088 36.6126C13.1386 37.7228 15.1721 38.2647 17.225 38.1627C15.298 39.9038 13.0466 41.2479 10.5996 42.1181C8.15265 42.9883 5.5581 43.3676 2.96442 43.2341C7.65561 45.8086 12.9886 46.9788 18.3267 46.6049" fill="#1DA1F2"/>
</g>
<defs>
<clipPath id="clip0_1_35">
<rect width="48" height="48" fill="white" transform="translate(0.285583 4.24834) rotate(-3.93079)"/>
</clipPath>
</defs>
</svg>
